# File created by Blade
# Date/Time:  Wed Apr 08 14:47:20 2015
# Frame Rate: 120.000 fps
#------------------------------------------------------
:FULLY-SPECIFIED
:DEGREES
2813
root 3.661484 32.313134 -9.349124 9.674511 -0.769784 -1.940598
Spine -0.128755 0.625906 0.633005
Head 3.377855 -5.600319 -2.178011
LeftShoulder -20.653995 46.617067 2.045867
LeftArm 51.263953 14.615406 -74.068984
LeftForeArm 2.409981 -0.000000 107.236449
LeftHand 9.094442 -0.000000 0.742260
LeftHandThumb1 -26.253704 0.000000 33.147579
RightShoulder -3.891171 -11.685787 -19.691693
RightArm 15.340001 -32.859793 79.034995
RightForeArm 0.912133 -0.000000 98.248645
RightHand 14.254635 -0.000000 -5.117552
RightHandThumb1 -24.326973 -0.000000 -32.862282
LeftUpLeg -41.128024 -3.220773 8.998486
LeftLeg 32.585052 -0.000000 -0.000000
LeftFoot 4.552104 12.008513 -20.510032
LeftToeBase -6.958054 -0.000000 0.000000
RightUpLeg -9.275623 2.669903 5.983052
RightLeg 12.385877 -0.000000 -0.000000
RightFoot -20.159836 -30.904957 9.157202
RightToeBase -1.453449 -0.000000 0.000000
2814
root 3.675100 32.329119 -9.368734 9.868676 -0.577232 -1.703574
Spine -0.438165 0.507246 0.433167
Head 3.486920 -5.567100 -2.286821
LeftShoulder -20.761692 46.670134 1.912309
LeftArm 51.144269 14.522366 -73.938987
LeftForeArm 2.588370 -0.000000 106.169604
LeftHand 9.081841 0.000000 0.632803
LeftHandThumb1 -26.253704 0.000000 33.147579
RightShoulder -3.944077 -11.736832 -19.683957
RightArm 15.344825 -33.005824 79.009549
RightForeArm 1.019433 -0.000000 97.051842
RightHand 14.053052 -0.000000 -5.050247
RightHandThumb1 -24.326973 -0.000000 -32.862282
LeftUpLeg -41.013894 -3.601500 8.761124
LeftLeg 33.346710 -0.000000 -0.000000
LeftFoot 3.533991 11.624003 -20.797537
LeftToeBase -7.751461 -0.000000 0.000000
RightUpLeg -9.452072 2.551400 5.732958
RightLeg 12.267115 -0.000000 -0.000000
RightFoot -20.112404 -30.901571 9.211453
RightToeBase -1.467156 -0.000000 0.000000
2815
root 3.690400 32.344354 -9.381440 10.048013 -0.367326 -1.491344
Spine -0.735614 0.356913 0.282115
Head 3.595316 -5.540267 -2.426533
LeftShoulder -20.836960 46.684943 1.810284
LeftArm 50.975696 14.446255 -73.833903
LeftForeArm 2.828667 -0.000000 105.045954
LeftHand 9.076297 -0.000000 0.560494
LeftHandThumb1 -26.253704 0.000000 33.147579
RightShoulder -3.989769 -11.757749 -19.675824
RightArm 15.281814 -33.089186 79.058534
RightForeArm 0.879843 -0.000000 95.886684
RightHand 13.767455 -0.000000 -4.824463
RightHandThumb1 -24.326973 -0.000000 -32.862282
LeftUpLeg -40.869981 -3.962894 8.521691
LeftLeg 34.053006 -0.000000 -0.000000
LeftFoot 2.636911 11.200297 -21.040155
LeftToeBase -8.285501 -0.000000 0.000000
RightUpLeg -9.606238 2.389388 5.511903
RightLeg 12.157735 -0.000000 -0.000000
RightFoot -20.052194 -30.899664 9.225721
RightToeBase -1.474032 -0.000000 0.000000
2816
root 3.703129 32.358764 -9.395072 10.287139 -0.222308 -1.284033
Spine -1.095158 0.285919 0.094674
Head 3.704259 -5.523165 -2.513452
LeftShoulder -20.835777 46.690949 1.835311
LeftArm 50.785418 14.360429 -73.761426
LeftForeArm 2.919814 -0.000000 103.853060
LeftHand 9.099452 -0.000000 0.372514
LeftHandThumb1 -26.253704 0.000000 33.147579
RightShoulder -4.054796 -11.765974 -19.624781
RightArm 15.235509 -33.264743 79.068700
RightForeArm 0.999482 -0.000000 94.743478
RightHand 13.477858 -0.000000 -4.949492
RightHandThumb1 -24.326973 -0.000000 -32.862282
LeftUpLeg -40.758027 -4.229003 8.274427
LeftLeg 34.667629 -0.000000 -0.000000
LeftFoot 1.871805 10.790883 -21.358060
LeftToeBase -9.076219 -0.000000 0.000000
RightUpLeg -9.838615 2.317487 5.284341
RightLeg 12.092001 -0.000000 -0.000000
RightFoot -20.041657 -30.882024 9.331627
RightToeBase -1.459534 -0.000000 0.000000
2817
root 3.713221 32.372805 -9.408096 10.569989 -0.111056 -1.085606
Spine -1.485307 0.237262 -0.107102
Head 3.747477 -5.509357 -2.545834
LeftShoulder -20.921552 46.698540 1.776844
LeftArm 50.669937 14.286567 -73.680031
LeftForeArm 2.990244 -0.000000 102.592734
LeftHand 8.999997 0.000000 -0.390391
LeftHandThumb1 -26.253704 0.000000 33.147579
RightShoulder -4.143982 -11.798533 -19.546006
RightArm 15.239651 -33.373163 79.080246
RightForeArm 0.682701 0.000000 93.472106
RightHand 13.581917 -0.000000 -4.959670
RightHandThumb1 -24.326973 -0.000000 -32.862282
LeftUpLeg -40.658283 -4.447346 8.031700
LeftLeg 35.170942 -0.000000 -0.000000
LeftFoot 1.219286 10.434120 -21.557717
LeftToeBase -9.735394 -0.000000 0.000000
RightUpLeg -10.120355 2.319566 5.060830
RightLeg 12.044948 -0.000000 -0.000000
RightFoot -19.990309 -30.914308 9.375436
RightToeBase -1.444804 -0.000000 0.000000
2818
root 3.729420 32.385792 -9.416724 10.846985 0.033293 -0.875353
Spine -1.870086 0.137159 -0.290560
Head 3.817022 -5.517171 -2.616487
LeftShoulder -20.963063 46.681979 1.762334
LeftArm 50.511708 14.206885 -73.666583
LeftForeArm 3.216728 -0.000000 101.251364
LeftHand 9.013561 -0.000000 -0.351813
LeftHandThumb1 -26.253704 0.000000 33.147579
RightShoulder -4.212293 -11.802621 -19.495439
RightArm 15.177270 -33.424871 79.135093
RightForeArm 0.214670 -0.000000 92.273109
RightHand 13.401546 -0.000000 -4.723892
RightHandThumb1 -24.326973 -0.000000 -32.862282
LeftUpLeg -40.519926 -4.720303 7.769366
LeftLeg 35.524948 -0.000000 -0.000000
LeftFoot 0.597787 10.103696 -21.702323
LeftToeBase -10.326996 -0.000000 0.000000
RightUpLeg -10.430457 2.159488 4.834620
RightLeg 12.078439 -0.000000 -0.000000
RightFoot -20.009184 -30.826555 9.473759
RightToeBase -1.522092 -0.000000 0.000000
2819
root 3.750651 32.400643 -9.419194 11.093568 0.225174 -0.672517
Spine -2.216464 0.005313 -0.427277
Head 3.851846 -5.510271 -2.734903
LeftShoulder -21.018340 46.703846 1.691396
LeftArm 50.425787 14.142723 -73.672012
LeftForeArm 3.303034 -0.000000 99.784040
LeftHand 8.972619 -0.000000 0.258140
LeftHandThumb1 -26.253704 0.000000 33.147579
RightShoulder -4.308216 -11.826283 -19.432440
RightArm 15.125236 -33.400237 79.209880
RightForeArm -0.446034 -0.000000 91.022539
RightHand 13.456649 0.000000 -4.461561
RightHandThumb1 -24.326973 -0.000000 -32.862282
LeftUpLeg -40.324031 -5.051623 7.517604
LeftLeg 35.730542 -0.000000 -0.000000
LeftFoot 0.083293 9.810179 -21.599637
LeftToeBase -11.100779 -0.000000 0.000000
RightUpLeg -10.664313 1.976895 4.613389
RightLeg 12.041675 -0.000000 -0.000000
RightFoot -19.964586 -30.778583 9.512888
RightToeBase -1.534129 -0.000000 0.000000
2820
root 3.767632 32.414374 -9.422329 11.417959 0.379919 -0.473101
Spine -2.640259 -0.171988 -0.582613
Head 3.848330 -5.433414 -2.830074
LeftShoulder -21.156441 46.729048 1.600482
LeftArm 50.375350 14.075947 -73.647616
LeftForeArm 3.485410 0.000000 98.248242
LeftHand 9.153930 0.000000 0.283018
LeftHandThumb1 -26.253704 0.000000 33.147579
RightShoulder -4.366707 -11.844617 -19.366042
RightArm 15.191078 -33.597222 79.182582
RightForeArm -0.333224 -0.000000 89.770998
RightHand 13.220215 -0.000000 -5.059584
RightHandThumb1 -24.326973 -0.000000 -32.862282
LeftUpLeg -40.193110 -5.284974 7.264223
LeftLeg 35.818220 -0.000000 -0.000000
LeftFoot -0.386623 9.449435 -21.546954
LeftToeBase -11.411086 -0.000000 0.000000
RightUpLeg -10.916481 2.059529 4.372076
RightLeg 11.896582 -0.000000 -0.000000
RightFoot -19.883118 -30.917745 9.506066
RightToeBase -1.485581 -0.000000 0.000000
2821
root 3.783804 32.425973 -9.426113 11.809982 0.477231 -0.289300
Spine -3.136549 -0.280407 -0.741927
Head 3.844861 -5.401185 -2.901729
LeftShoulder -21.155511 46.691703 1.674423
LeftArm 50.209174 14.017470 -73.618603
LeftForeArm 3.822135 -0.000000 96.681194
LeftHand 9.034537 0.000000 -0.478872
LeftHandThumb1 -26.253704 0.000000 33.147579
RightShoulder -4.447446 -11.840103 -19.323917
RightArm 15.234933 -33.819919 79.227679
RightForeArm -0.030843 -0.000000 88.389485
RightHand 13.019567 -0.000000 -4.868312
RightHandThumb1 -24.326973 -0.000000 -32.862282
LeftUpLeg -40.103265 -5.524804 7.058155
LeftLeg 35.774887 -0.000000 -0.000000
LeftFoot -0.887674 9.160020 -21.481041
LeftToeBase -11.826987 -0.000000 0.000000
RightUpLeg -11.295823 2.075785 4.157867
RightLeg 11.848316 -0.000000 -0.000000
RightFoot -19.885243 -31.013573 9.594496
RightToeBase -1.543367 -0.000000 0.000000
2822
root 3.803634 32.438120 -9.423779 12.186453 0.640353 -0.119308
Spine -3.609465 -0.461287 -0.846766
Head 3.814021 -5.359829 -3.003628
LeftShoulder -21.169897 46.647511 1.645719
LeftArm 50.022895 13.899538 -73.715541
LeftForeArm 4.161241 -0.000000 95.114337
LeftHand 9.050506 -0.000000 -1.282818
LeftHandThumb1 -26.253704 0.000000 33.147579
RightShoulder -4.536567 -11.841107 -19.295722
RightArm 15.291249 -33.969130 79.280239
RightForeArm 0.160709 -0.000000 86.939134
RightHand 13.026742 -0.000000 -4.818065
RightHandThumb1 -24.326973 -0.000000 -32.862282
LeftUpLeg -39.975795 -5.918207 6.929952
LeftLeg 35.577217 -0.000000 -0.000000
LeftFoot -1.381579 8.805510 -21.424719
LeftToeBase -11.988852 -0.000000 0.000000
RightUpLeg -11.626949 2.074470 3.946364
RightLeg 11.792853 -0.000000 -0.000000
RightFoot -19.881961 -31.037949 9.647170
RightToeBase -1.454343 -0.000000 0.000000
2823
root 3.823362 32.450239 -9.417299 12.535382 0.780810 0.037005
Spine -4.042420 -0.661074 -0.946390
Head 3.766446 -5.287316 -3.069815
LeftShoulder -21.192531 46.580953 1.599563
LeftArm 49.856592 13.761035 -73.680778
LeftForeArm 4.245524 -0.000000 93.541603
LeftHand 8.851168 -0.000000 -1.020921
LeftHandThumb1 -26.253704 0.000000 33.147579
RightShoulder -4.593782 -11.812582 -19.260267
RightArm 15.343000 -34.090265 79.345468
RightForeArm 0.246436 -0.000000 85.435913
RightHand 12.672268 -0.000000 -5.023621
RightHandThumb1 -24.326973 -0.000000 -32.862282
LeftUpLeg -39.779379 -6.328624 6.807473
LeftLeg 35.199601 -0.000000 -0.000000
LeftFoot -1.947320 8.651101 -21.448098
LeftToeBase -11.964035 -0.000000 0.000000
RightUpLeg -11.899284 2.084360 3.754822
RightLeg 11.687333 -0.000000 -0.000000
RightFoot -19.846172 -31.066075 9.683564
RightToeBase -1.389534 -0.000000 0.000000
